# xmcd
#
# Track frame offsets: 
#        150
#        15837
#        33837
#        47875
#        63062
#        76275
#        94450
#        108050
#        124250
#        139700
#        152662
#        169800
#        181462
#        195850
#        209000
#        226400
#        239775
#        245762
#        263937
#        282675
#
# Disc length: 3981 seconds
#
# Revision: 0
# Processed by: cddbd v1.5.1PL0 Copyright (c) Steve Scherf et al.
# Submitted via: ExactAudioCopy v0.95b2
#
DISCID=1a0f8b14
DTITLE=蔡琴 - 蔡琴经典金曲精选（二）
DYEAR=1996
DGENRE=Easy Listening
TTITLE0=我有一段情
TTITLE1=恰似你的温柔
TTITLE2=月光小夜曲
TTITLE3=绿岛小夜曲
TTITLE4=情人的眼泪
TTITLE5=明日之歌
TTITLE6=蓝色的梦
TTITLE7=未织绮罗香
TTITLE8=重相逢
TTITLE9=情人山
TTITLE10=怀念
TTITLE11=初恋
TTITLE12=秦淮河畔
TTITLE13=出塞曲
TTITLE14=我曾经来过
TTITLE15=昨夜之灯
TTITLE16=往事难忘
TTITLE17=飘零的落花
TTITLE18=小窗思念
TTITLE19=船
EXTD=
EXTT0=
EXTT1=
EXTT2=
EXTT3=
EXTT4=
EXTT5=
EXTT6=
EXTT7=
EXTT8=
EXTT9=
EXTT10=
EXTT11=
EXTT12=
EXTT13=
EXTT14=
EXTT15=
EXTT16=
EXTT17=
EXTT18=
EXTT19=
PLAYORDER=
